<?xml version="1.0" encoding="UTF-8" standalone="no"?>
<!-- Created with Inkscape (http://www.inkscape.org/) -->

<svg
   width="1920"
   height="1080"
   viewBox="0 0 508 285.75"
   version="1.1"
   id="svg5"
   xmlns="http://www.w3.org/2000/svg"
   xmlns:svg="http://www.w3.org/2000/svg">
  <defs
     id="defs2" />
  <g
     id="layer1">
    <circle
       id="path1306"
       style="fill:#ff0000;stroke:#000000;stroke-width:0.264583"
       cx="110.59019"
       cy="-21.619133"
       r="0.027689144" />
    <circle
       id="path1308"
       style="fill:#ff0000;stroke:#000000;stroke-width:0.264583"
       cx="110.59019"
       cy="-21.619133"
       r="0.027689144" />
    <circle
       id="path1314"
       style="fill:#ff0000;stroke:#000000;stroke-width:0.264583"
       cx="312.64597"
       cy="-24.945156"
       r="0.027689144" />
    <circle
       id="path1316"
       style="fill:#ff0000;stroke:#000000;stroke-width:0.264583"
       cx="312.64597"
       cy="-24.945156"
       r="0.027689144" />
    <circle
       id="path1519"
       style="fill:#ff0000;stroke:#000000;stroke-width:0.264583"
       cx="270.2392"
       cy="-25.776661"
       r="0.027689144" />
    <circle
       id="path1521"
       style="fill:#ff0000;stroke:#000000;stroke-width:0.264583"
       cx="270.2392"
       cy="-25.776661"
       r="0.027689144" />
    <circle
       id="path1523"
       style="fill:#ff0000;stroke:#000000;stroke-width:0.264583"
       cx="328.44455"
       cy="-46.564289"
       r="0.027689144" />
    <circle
       id="path1525"
       style="fill:#ff0000;stroke:#000000;stroke-width:0.264583"
       cx="328.44455"
       cy="-46.564289"
       r="0.027689144" />
    <g
       id="g2385"
       transform="translate(43.23827,0.8315052)">
      <path
         style="fill:#ffffff;stroke-width:0.132292;stroke-linecap:round;paint-order:fill markers stroke;stop-color:#000000"
         id="path2139"
         d="m 21.788579,273.99168 c 0.74767,-0.74124 1.64905,-1.64566 2.391453,-2.29788 3.345363,-2.93905 5.006028,-4.10883 8.861232,-7.09364 9.646952,-7.469 7.601651,-5.88186 18.374251,-14.17886 24.015007,-17.71417 48.076771,-35.36866 70.806535,-54.73613 19.26436,-16.41469 24.97264,-22.22724 43.50476,-39.67318 20.27711,-19.83911 39.51457,-40.73482 57.49722,-62.676686 7.78966,-9.50469 19.00451,-23.976631 26.09724,-34.411218 2.99927,-4.41244 5.66021,-9.045612 8.49032,-13.568418 3.03205,-6.300364 10.67329,-18.72865 5.73522,-26.320327 -5.35587,-8.233987 -20.08369,-6.896175 -27.94796,-7.041069 -29.33452,2.112659 -57.40087,11.564585 -84.02695,23.657654 -6.23728,2.832854 -12.3257,5.982626 -18.48854,8.973939 -6.08537,3.475879 -12.30748,6.722594 -18.25611,10.427637 -11.45237,7.132997 -22.391341,15.131663 -32.610869,23.943201 -9.026086,7.78252 -16.78446,15.455535 -23.976301,24.946027 -2.886541,3.80913 -5.23894,7.995 -7.858411,11.9925 -1.672518,3.71811 -3.700359,7.29602 -5.017561,11.15434 -3.115788,9.12673 -3.618103,18.4777 2.553251,26.51237 4.518855,5.88324 8.664897,7.14341 15.058982,10.52227 3.441742,1.00518 6.800152,2.35992 10.325224,3.01554 9.060156,1.68506 18.747322,1.46429 27.840285,0.59038 10.25738,-0.98581 22.57965,-3.54991 32.51549,-6.02412 5.67374,-1.41286 11.26886,-3.12458 16.90329,-4.68687 24.94145,-7.3132 48.8947,-17.4066 72.79074,-27.51794 1.15643,-0.42738 2.30259,-0.88363 3.46928,-1.28214 0.13408,-0.0458 -0.22918,0.17459 -0.36301,0.22113 -0.60203,0.2094 -1.31012,0.17911 -1.83354,0.54287 -1.217,0.84577 -2.16915,2.02033 -3.27478,3.00723 -2.33254,2.08204 -7.4391,6.46911 -9.68638,8.40816 -5.08258,4.41933 -10.13985,8.87069 -15.05661,13.47495 -2.07073,1.93912 -5.05453,4.73209 -6.94754,6.96582 -0.71286,0.84116 -1.30644,1.77653 -1.95966,2.6648 -0.25219,0.69242 -0.79761,1.34148 -0.75659,2.07725 0.15241,2.73347 2.92436,2.51291 4.94417,2.36686 1.64133,-0.11868 3.23082,-0.64397 4.81576,-1.08671 5.54573,-1.54917 8.58408,-2.88805 14.11452,-5.0151 20.2021,-8.38547 39.29614,-19.1063 58.87835,-28.78475 2.10588,-0.91212 4.17045,-1.92631 6.31767,-2.73638 1.29379,-0.48809 2.62202,-0.92101 3.98561,-1.15064 0.3099,-0.0522 0.88452,0.0165 0.88288,0.33079 -0.003,0.40743 -0.63732,0.51849 -0.88894,0.83894 -0.73335,0.9339 -1.36986,1.93992 -2.05476,2.90987 -1.13757,1.40995 -2.27515,2.8199 -3.41272,4.22985 -4.38238,5.2493 -9.2596,10.05505 -13.81995,15.14231 -1.61432,1.80084 -5.13212,5.61552 -6.15668,8.1863 -0.32994,0.82787 -0.15146,1.77594 -0.22718,2.66391 0.85105,0.59665 1.52554,1.63419 2.55317,1.78994 3.20209,0.48534 9.06046,-1.62632 11.72778,-2.61742 8.28323,-3.07781 16.06767,-7.23777 23.87923,-11.32265 2.59368,-1.4251 5.18633,-2.85208 7.78105,-4.2753 2.13222,-1.16954 9.42009,-5.22288 12.07122,-6.45092 1.08352,-0.50189 2.19572,-0.96559 3.35198,-1.26386 2.44654,-0.6311 1.90428,-0.2545 1.31643,0.35111 -0.68816,1.852 -4.07741,6.82416 -3.23898,8.51554 0.49496,0.99847 1.6173,1.53364 2.42594,2.30046 1.70418,0.33866 3.37934,0.89386 5.11255,1.01597 5.87965,0.41426 13.90618,-0.42984 19.54328,-1.03589 14.51348,-1.56036 28.9627,-3.77168 43.40892,-5.84144 4.95038,-0.7336 9.90076,-1.46721 14.85117,-2.20081 0.25479,-0.0999 -1.15729,-3.70344 -1.41211,-3.60359 v 0 c -4.95572,0.71702 -9.91142,1.43403 -14.86715,2.15104 -9.98259,1.4733 -19.96104,2.97475 -29.94525,4.43712 -4.38309,0.64198 -8.76358,1.30362 -13.15413,1.89263 -4.37401,0.58679 -12.54051,1.69228 -17.49605,1.76958 -1.49537,0.0233 -2.98492,-0.19214 -4.47741,-0.28821 -0.58621,-0.15685 -1.36784,-0.006 -1.7586,-0.47057 -0.32941,-0.39139 -0.0686,-1.04121 0.0723,-1.53299 0.19987,-0.69764 0.61238,-1.316 0.93075,-1.96816 1.03963,-2.12969 2.22869,-3.93176 1.72839,-6.41434 -0.65246,-0.42713 -1.20663,-1.07031 -1.95733,-1.28138 -3.00762,-0.84565 -9.38948,2.78327 -11.55959,3.87655 -4.09432,2.06269 -10.73772,5.70226 -14.65199,7.82169 -10.91258,5.73423 -21.90996,11.86952 -33.97265,14.82829 0.0626,-0.55219 -0.0632,-1.16075 0.18775,-1.65657 1.19663,-2.36392 4.69938,-6.00379 6.24307,-7.68621 4.66302,-5.08209 9.5141,-10.0032 13.79921,-15.42119 1.23127,-1.66414 7.55528,-8.65789 5.03335,-11.41873 -0.68339,-0.74814 -1.97368,-0.63498 -2.98513,-0.57404 -3.24054,0.19523 -8.45844,2.59343 -11.02982,3.59505 -2.85165,1.33705 -5.7284,2.62184 -8.55497,4.01115 -16.71637,8.2164 -33.00194,17.33204 -50.08774,24.79208 -5.28104,2.16231 -8.33796,3.55614 -13.6206,5.23671 -1.42034,0.45186 -2.89228,0.72625 -4.31924,1.15672 -0.52588,0.15865 -1.00105,0.46561 -1.53148,0.60828 -0.20839,0.0561 -0.64997,0.19345 -0.64699,-0.0223 0.008,-0.55245 0.44549,-1.01123 0.66823,-1.51685 0.64914,-0.79654 1.25137,-1.63373 1.94741,-2.38962 1.89966,-2.06302 5.0547,-4.90378 7.04502,-6.70935 4.98058,-4.51826 10.047,-8.94066 15.08361,-13.39596 2.8968,-2.57734 6.75236,-5.93597 9.55342,-8.69059 1.14764,-1.12862 4.97508,-4.3386 4.37729,-6.82552 -0.46283,-1.92548 -6.5286,0.56153 -5.93183,0.32956 -9.2884,3.37754 -18.45226,7.05245 -27.69308,10.55634 -14.99762,5.68673 -30.12274,11.05301 -45.48535,15.67866 -5.57055,1.55546 -11.10421,3.2496 -16.71164,4.66637 -10.42062,2.63286 -21.19365,4.89155 -31.88575,6.13823 -8.309983,0.96893 -16.89517,1.36931 -25.213503,0.0806 -3.38528,-0.52445 -6.62795,-1.73521 -9.941925,-2.60281 -5.806326,-2.83746 -10.021022,-4.05614 -14.218258,-9.18364 -5.922209,-7.2348 -5.063694,-15.83869 -2.036758,-24.08099 1.350958,-3.67864 3.374419,-7.07412 5.061628,-10.61119 2.62251,-3.83467 4.99628,-7.85186 7.867528,-11.50401 7.248485,-9.219885 14.916195,-16.587263 23.886842,-24.169422 10.159294,-8.586827 21.004906,-16.42359 32.303616,-23.439895 5.87885,-3.650665 12.01219,-6.874611 18.01828,-10.311916 6.10543,-2.965429 12.1446,-6.071338 18.31627,-8.896286 26.13901,-11.964538 53.58274,-21.51776 82.38528,-24.037333 6.50449,-0.161777 13.03117,-0.985134 19.38206,1.108873 1.85505,0.611642 3.8261,1.512679 4.97949,3.089064 1.09594,1.497868 1.38492,3.57461 1.2505,5.425724 -0.46933,6.463242 -4.99917,13.228831 -7.79463,18.520039 -2.93293,4.378148 -5.72118,8.856753 -8.79878,13.134441 -7.23878,10.061482 -18.87558,24.520263 -26.63647,33.726064 -18.18839,21.574687 -37.42277,42.256897 -57.54628,62.037977 -18.62799,17.63317 -23.82759,22.94082 -43.07729,39.65116 -22.452223,19.4904 -46.079202,37.5241 -69.458627,55.86847 -6.930924,5.67231 -11.227125,9.13716 -17.845434,14.72173 -3.594989,3.03346 -5.47352,4.56241 -8.561339,7.65936 -0.767848,0.77012 -1.473041,1.61022 -2.18032,2.43742 -0.08818,0.11366 1.519556,1.36078 1.607739,1.24708 z" />
      <path
         style="fill:#ffffff;stroke-width:0.132292;stroke-linecap:round;paint-order:fill markers stroke;stop-color:#000000"
         id="path2141"
         d="m 337.11557,126.90662 c 5.24322,-2.56307 10.25604,-5.55316 15.27037,-8.52924 0.1478,-0.12622 -1.63724,-2.21633 -1.78503,-2.09011 v 0 c -4.91879,3.00859 -9.86013,5.98 -14.77635,8.99244 -0.11504,0.0913 1.17597,1.7182 1.29101,1.62691 z" />
    </g>
  </g>
</svg>
