<?xml version="1.0" standalone="no"?><svg xmlns="http://www.w3.org/2000/svg" viewBox="0 0 1440 320"><path fill="#3a5864" fill-opacity="1" d="M0,192L34.3,213.3C68.6,235,137,277,206,266.7C274.3,256,343,192,411,186.7C480,181,549,235,617,256C685.7,277,754,267,823,240C891.4,213,960,171,1029,170.7C1097.1,171,1166,213,1234,202.7C1302.9,192,1371,128,1406,96L1440,64L1440,320L1405.7,320C1371.4,320,1303,320,1234,320C1165.7,320,1097,320,1029,320C960,320,891,320,823,320C754.3,320,686,320,617,320C548.6,320,480,320,411,320C342.9,320,274,320,206,320C137.1,320,69,320,34,320L0,320Z"></path></svg>